<svg width="32" height="32" viewBox="0 0 32 32" fill="none" xmlns="http://www.w3.org/2000/svg">
<g clip-path="url(#clip0_133_271)">
<rect width="32" height="32" fill="white"/>
<path d="M1 7C1 5.34315 2.34315 4 4 4H28C29.6569 4 31 5.34315 31 7V16C31 17.1046 30.1046 18 29 18H3C1.89543 18 1 17.1046 1 16V7Z" stroke="#1F3347" stroke-width="2"/>
<line x1="1" y1="14" x2="31" y2="14" stroke="#1F3347" stroke-width="2" stroke-linecap="round"/>
<line x1="12" y1="10" x2="20" y2="10" stroke="#FB747B" stroke-width="2" stroke-linecap="round"/>
<path d="M26 21C24.8954 21 24 22.7909 24 25C24 27.2091 24.8954 29 26 29" stroke="#1F3347" stroke-width="2" stroke-linecap="round"/>
<path d="M6 21C7.10457 21 8 22.7909 8 25C8 27.2091 7.10457 29 6 29" stroke="#1F3347" stroke-width="2" stroke-linecap="round"/>
<path d="M21 21C19.8954 21 19 22.7909 19 25C19 27.2091 19.8954 29 21 29" stroke="#1F3347" stroke-width="2" stroke-linecap="round"/>
<path d="M11 21C12.1046 21 13 22.7909 13 25C13 27.2091 12.1046 29 11 29" stroke="#1F3347" stroke-width="2" stroke-linecap="round"/>
</g>
<defs>
<clipPath id="clip0_133_271">
<rect width="32" height="32" fill="white"/>
</clipPath>
</defs>
</svg>
