<svg width="32" height="32" viewBox="0 0 32 32" fill="none" xmlns="http://www.w3.org/2000/svg">
<g clip-path="url(#clip0_131_88)">
<rect width="32" height="32" fill="white"/>
<path d="M5 8C5 4.13401 8.13401 1 12 1H20C23.866 1 27 4.13401 27 8V15.6667H5V8Z" stroke="#1F3347" stroke-width="2"/>
<path d="M8.33333 11.6667C8.33333 10.5621 9.22876 9.66666 10.3333 9.66666H12.3333C13.4379 9.66666 14.3333 10.5621 14.3333 11.6667V15.6667H8.33333V11.6667Z" stroke="#FB747B" stroke-width="2"/>
<path d="M17.6667 11.6667C17.6667 10.5621 18.5621 9.66666 19.6667 9.66666H21.6667C22.7712 9.66666 23.6667 10.5621 23.6667 11.6667V15.6667H17.6667V11.6667Z" stroke="#FB747B" stroke-width="2"/>
<path d="M1 18.6667C1 17.0098 2.34315 15.6667 4 15.6667H28C29.6569 15.6667 31 17.0098 31 18.6667V23.3333C31 23.8856 30.5523 24.3333 30 24.3333H2C1.44772 24.3333 1 23.8856 1 23.3333V18.6667Z" stroke="#1F3347" stroke-width="2"/>
<line x1="3" y1="25" x2="3" y2="31" stroke="#1F3347" stroke-width="2" stroke-linecap="round"/>
<line x1="29" y1="25" x2="29" y2="31" stroke="#1F3347" stroke-width="2" stroke-linecap="round"/>
<line x1="3" y1="27.6667" x2="29" y2="27.6667" stroke="#1F3347" stroke-width="2" stroke-linecap="round"/>
</g>
<defs>
<clipPath id="clip0_131_88">
<rect width="32" height="32" fill="white"/>
</clipPath>
</defs>
</svg>
