<svg width="32" height="32" viewBox="0 0 32 32" fill="none" xmlns="http://www.w3.org/2000/svg">
<g clip-path="url(#clip0_132_187)">
<rect width="32" height="32" fill="white"/>
<path d="M23 23C23 19.6863 19.866 17 16 17C12.134 17 9 19.6863 9 23" stroke="#1F3347" stroke-width="2" stroke-linecap="round"/>
<path d="M27 19C27 14.0294 22.0751 10 16 10C9.92487 10 5 14.0294 5 19" stroke="#1F3347" stroke-width="2" stroke-linecap="round"/>
<path d="M30 15C30 8.92487 23.732 4 16 4C8.26801 4 2 8.92487 2 15" stroke="#1F3347" stroke-width="2" stroke-linecap="round"/>
<path d="M19 25C19 26.6569 17.6569 28 16 28C14.3431 28 13 26.6569 13 25C13 23.3431 14.3431 22 16 22C17.6569 22 19 23.3431 19 25Z" stroke="#FB747B" stroke-width="2"/>
</g>
<defs>
<clipPath id="clip0_132_187">
<rect width="32" height="32" fill="white"/>
</clipPath>
</defs>
</svg>
