<svg width="48" height="48" viewBox="0 0 48 48" fill="none" xmlns="http://www.w3.org/2000/svg">
<g clip-path="url(#clip0_114_52)">
<rect width="48" height="48" fill="white"/>
<path d="M33.5 41.5C33.5 41.8087 33.3367 42.2867 32.635 42.903C31.9359 43.5169 30.838 44.1381 29.3521 44.6901C26.3917 45.7896 22.2016 46.5 17.5 46.5C12.7984 46.5 8.60833 45.7896 5.64791 44.6901C4.16197 44.1381 3.0641 43.5169 2.36501 42.903C1.66326 42.2867 1.5 41.8087 1.5 41.5C1.5 41.1913 1.66326 40.7133 2.36501 40.097C3.0641 39.4831 4.16197 38.8619 5.64791 38.3099C8.60833 37.2104 12.7984 36.5 17.5 36.5C22.2016 36.5 26.3917 37.2104 29.3521 38.3099C30.838 38.8619 31.9359 39.4831 32.635 40.097C33.3367 40.7133 33.5 41.1913 33.5 41.5Z" stroke="#1F3347" stroke-width="3"/>
<path d="M29.5 12C29.5 15.0532 28.0013 22.232 25.5006 28.6939C24.2567 31.9083 22.8062 34.8333 21.2466 36.9264C19.6322 39.093 18.1814 40 17 40C15.8186 40 14.3678 39.093 12.7534 36.9264C11.1938 34.8333 9.74334 31.9083 8.4994 28.6939C5.99868 22.232 4.5 15.0532 4.5 12C4.5 6.40961 9.87118 1.5 17 1.5C24.1288 1.5 29.5 6.40961 29.5 12Z" fill="white" stroke="#1F3347" stroke-width="3"/>
<circle cx="17" cy="15" r="4.5" stroke="#FB747B" stroke-width="3"/>
</g>
<defs>
<clipPath id="clip0_114_52">
<rect width="48" height="48" fill="white"/>
</clipPath>
</defs>
</svg>
