<svg width="36" height="36" viewBox="0 0 36 36" fill="none" xmlns="http://www.w3.org/2000/svg">
<path d="M16.0979 6.6041C16.6966 4.76148 19.3034 4.76148 19.9021 6.6041L21.4238 11.2875C21.6916 12.1115 22.4595 12.6695 23.326 12.6695H28.2504C30.1878 12.6695 30.9934 15.1487 29.4259 16.2875L25.442 19.182C24.741 19.6913 24.4477 20.594 24.7155 21.4181L26.2372 26.1014C26.8359 27.9441 24.7269 29.4763 23.1595 28.3375L19.1756 25.443C18.4746 24.9337 17.5254 24.9337 16.8244 25.443L12.8405 28.3375C11.2731 29.4763 9.16411 27.9441 9.76282 26.1014L11.2845 21.4181C11.5523 20.594 11.259 19.6913 10.558 19.182L6.57407 16.2875C5.00664 15.1487 5.8122 12.6695 7.74964 12.6695H12.674C13.5405 12.6695 14.3084 12.1115 14.5762 11.2875L16.0979 6.6041Z" fill="#FEB648"/>
</svg>
