<svg width="48" height="48" viewBox="0 0 48 48" fill="none" xmlns="http://www.w3.org/2000/svg">
<g clip-path="url(#clip0_114_67)">
<rect width="48" height="48" fill="white"/>
<mask id="path-1-inside-1_114_67" fill="white">
<path fill-rule="evenodd" clip-rule="evenodd" d="M17.919 9C17.0691 9 16.312 9.53712 16.0312 10.3393L14.75 14H8C3.58172 14 0 17.5817 0 22V35C0 39.4183 3.58172 43 8 43H40C44.4183 43 48 39.4183 48 35V22C48 17.5817 44.4183 14 40 14H33.25L31.9688 10.3393C31.688 9.53713 30.9309 9 30.081 9H17.919Z"/>
</mask>
<path d="M16.0312 10.3393L18.8628 11.3303V11.3303L16.0312 10.3393ZM14.75 14V17H16.8784L17.5816 14.9911L14.75 14ZM33.25 14L30.4184 14.9911L31.1216 17H33.25V14ZM31.9688 10.3393L29.1372 11.3303V11.3304L31.9688 10.3393ZM18.8628 11.3303C18.7224 11.7314 18.3439 12 17.919 12V6C15.7942 6 13.9016 7.34281 13.1997 9.34825L18.8628 11.3303ZM17.5816 14.9911L18.8628 11.3303L13.1997 9.34825L11.9184 13.0089L17.5816 14.9911ZM8 17H14.75V11H8V17ZM3 22C3 19.2386 5.23858 17 8 17V11C1.92487 11 -3 15.9249 -3 22H3ZM3 35V22H-3V35H3ZM8 40C5.23858 40 3 37.7614 3 35H-3C-3 41.0751 1.92487 46 8 46V40ZM40 40H8V46H40V40ZM45 35C45 37.7614 42.7614 40 40 40V46C46.0751 46 51 41.0751 51 35H45ZM45 22V35H51V22H45ZM40 17C42.7614 17 45 19.2386 45 22H51C51 15.9249 46.0751 11 40 11V17ZM33.25 17H40V11H33.25V17ZM29.1372 11.3304L30.4184 14.9911L36.0816 13.0089L34.8003 9.34825L29.1372 11.3304ZM30.081 12C29.6561 12 29.2776 11.7314 29.1372 11.3303L34.8003 9.34825C34.0984 7.34281 32.2058 6 30.081 6V12ZM17.919 12H30.081V6H17.919V12Z" fill="#1F3347" mask="url(#path-1-inside-1_114_67)"/>
<circle cx="24" cy="28" r="6.5" stroke="#FB747B" stroke-width="3"/>
<line x1="35.5" y1="20.5" x2="39.5" y2="20.5" stroke="#1F3347" stroke-width="3" stroke-linecap="round"/>
</g>
<defs>
<clipPath id="clip0_114_67">
<rect width="48" height="48" fill="white"/>
</clipPath>
</defs>
</svg>
